<svg class="lp-icon" xmlns="http://www.w3.org/2000/svg" viewBox="0 0 24 24" aria-hidden="true">
										<path d="M12 4.62c2.4 0 2.69.01 3.64.05.87.04 1.35.2 1.67.31.42.17.72.36 1.03.68.32.31.51.61.68 1.03.12.32.27.8.3 1.67.05.95.06 1.24.06 3.64s-.01 2.69-.05 3.64a4.99 4.99 0 0 1-.31 1.67c-.17.42-.36.72-.68 1.03-.31.32-.61.51-1.03.68-.32.12-.8.27-1.67.3-.95.05-1.24.06-3.64.06s-2.69-.01-3.64-.05a4.99 4.99 0 0 1-1.67-.31 2.79 2.79 0 0 1-1.03-.68 2.79 2.79 0 0 1-.68-1.03c-.12-.32-.27-.8-.3-1.67-.05-.95-.06-1.24-.06-3.64s.01-2.69.05-3.64c.04-.87.2-1.35.31-1.67.17-.42.36-.72.68-1.03.31-.32.61-.51 1.03-.68.32-.12.8-.27 1.67-.3.95-.05 1.24-.06 3.64-.06M12 3c-2.44 0-2.75.01-3.71.05-.96.05-1.61.2-2.18.42a4.4 4.4 0 0 0-1.6 1.04c-.5.5-.8 1-1.04 1.6a6.6 6.6 0 0 0-.42 2.18C3.01 9.25 3 9.56 3 12s.01 2.75.05 3.71c.05.96.2 1.61.42 2.19a4.5 4.5 0 0 0 2.64 2.63 6.6 6.6 0 0 0 2.18.42c.96.04 1.27.05 3.71.05s2.75-.01 3.71-.05a6.9 6.9 0 0 0 2.19-.42 4.41 4.41 0 0 0 1.59-1.04c.5-.5.8-1 1.04-1.6a6.6 6.6 0 0 0 .42-2.18c.04-.96.05-1.27.05-3.71s-.01-2.75-.05-3.71a6.63 6.63 0 0 0-.42-2.19 4.41 4.41 0 0 0-1.04-1.59c-.5-.5-1-.8-1.6-1.04a6.6 6.6 0 0 0-2.18-.42C14.75 3.01 14.44 3 12 3zm0 4.38a4.62 4.62 0 1 0 0 9.24 4.62 4.62 0 0 0 0-9.24zM12 15a3 3 0 1 1 0-6 3 3 0 0 1 0 6zm4.8-8.88a1.08 1.08 0 1 0 0 2.16 1.08 1.08 0 0 0 0-2.16z"></path>
									</svg>